<?xml version="1.0" standalone="no"?><!DOCTYPE svg PUBLIC "-//W3C//DTD SVG 1.1//EN" "http://www.w3.org/Graphics/SVG/1.1/DTD/svg11.dtd"><svg t="1701166562523" class="icon" viewBox="0 0 1024 1024" version="1.1" xmlns="http://www.w3.org/2000/svg" p-id="5186" xmlns:xlink="http://www.w3.org/1999/xlink" width="200" height="200"><path d="M938.666667 187.733333h-853.333334c-10.24 0-17.066667 6.826667-17.066666 17.066667v614.4c0 10.24 6.826667 17.066667 17.066666 17.066667h853.333334c10.24 0 17.066667-6.826667 17.066666-17.066667V204.8c0-10.24-6.826667-17.066667-17.066666-17.066667zM102.4 802.133333v-580.266666h102.4V512c0 10.24 6.826667 17.066667 17.066667 17.066667H238.933333v273.066666H102.4z m170.666667 0v-273.066666h17.066666c10.24 0 17.066667-6.826667 17.066667-17.066667V221.866667h68.266667V512c0 10.24 6.826667 17.066667 17.066666 17.066667h17.066667v273.066666H273.066667z m170.666666 0v-273.066666h17.066667c10.24 0 17.066667-6.826667 17.066667-17.066667V221.866667h68.266666V512c0 10.24 6.826667 17.066667 17.066667 17.066667h17.066667v273.066666h-136.533334z m170.666667 0v-273.066666h17.066667c10.24 0 17.066667-6.826667 17.066666-17.066667V221.866667h68.266667V512c0 10.24 6.826667 17.066667 17.066667 17.066667h17.066666v273.066666h-136.533333z m307.2 0h-136.533333v-273.066666h17.066666c10.24 0 17.066667-6.826667 17.066667-17.066667V221.866667h102.4v580.266666z" fill="#ffffff" p-id="5187"></path></svg>